:SAMPLES-PER-SECOND 30
:FULLY-SPECIFIED
:DEGREES
1415
root  11.2773 39.9664 8.9959 92.16 85.4213 95.575
RightUpLeg  -3.04372 -16.2076 -20.2653
RightLeg  11.5897 -4.35728 -0.421874
RightFoot  1.23194 -1.13787 10.3784
RightToes  0.000481921 0.542163 -0.142578
Spine  8.33291 2.75548 5.15181
Spine1  2.00542 3.43764 -1.7199
HEad  18.5553 0.418381 -3.11174
LeftShoulder1  4.19279 -7.28642 -32.7822
LeftArm  -21.2758 31.6822 -31.7761
LeftForeArm  -166.825 -48.0348 -170.27
LeftHand  -0.25398 0.0180481 5.50724
RightShoulder  3.31534 5.77845 29.744
RightArm  -6.43781 4.80725 30.9475
RightForeArm  169.844 56.2918 165.006
RightHand  -0.271641 0.783711 -5.20659
LeftUpLeg  -5.17268 16.1782 -1.55523
LeftLeg  16.4292 19.9156 3.86827
LeftFoot  -4.83889 0.117761 -1.56131
LeftToes  1.06245e-005 4.65869e-005 -8.65517e-006
1416
root  11.0648 39.8797 9.1907 48.8371 84.9945 52.2797
RightUpLeg  -5.45423 -14.9679 -18.4224
RightLeg  12.9498 -2.51949 -0.471198
RightFoot  0.987673 -1.07805 10.0183
RightToes  0.000481921 0.542163 -0.142578
Spine  9.53546 2.42097 4.60436
Spine1  2.22301 2.94533 -0.876739
HEad  16.9306 2.71906 -3.19742
LeftShoulder1  4.47244 -7.69967 -33.8411
LeftArm  -21.5316 30.0829 -31.1461
LeftForeArm  -165.948 -48.2732 -170.24
LeftHand  -0.25398 0.0180481 5.50724
RightShoulder  3.54621 6.12844 30.8549
RightArm  -9.17768 6.55493 32.0828
RightForeArm  170.463 55.4921 165.477
RightHand  -0.317185 1.63794 -5.42675
LeftUpLeg  -6.24158 19.4954 -0.889682
LeftLeg  18.3943 19.463 5.76329
LeftFoot  -5.17471 0.122729 -1.70153
LeftToes  1.06245e-005 4.65869e-005 -8.65517e-006
1417
root  10.8326 39.7988 9.41044 25.5954 82.8165 29.3982
RightUpLeg  -7.32307 -13.4023 -16.8422
RightLeg  14.3586 -1.18323 -0.446852
RightFoot  0.862724 -0.971664 9.12758
RightToes  0.000481921 0.542163 -0.142578
Spine  11.1191 2.16596 3.87727
Spine1  2.72242 2.54632 -0.156213
HEad  15.0397 4.60644 -2.90532
LeftShoulder1  4.81446 -8.21855 -34.9818
LeftArm  -22.3776 28.4472 -30.8482
LeftForeArm  -164.673 -49.0733 -170.036
LeftHand  -0.25398 0.0180481 5.50724
RightShoulder  3.98472 6.88952 32.3858
RightArm  -12.2799 6.23449 33.009
RightForeArm  172.296 54.3154 166.211
RightHand  -0.310532 1.78204 -5.2209
LeftUpLeg  -6.58006 22.4171 0.0721846
LeftLeg  19.7701 19.196 6.8798
LeftFoot  -5.39418 0.112462 -1.57505
LeftToes  1.06245e-005 4.65869e-005 -8.65517e-006
1418
root  10.6727 39.7984 9.65723 15.9265 80.5432 19.8635
RightUpLeg  -8.4556 -12.1093 -15.4456
RightLeg  14.6686 -0.146026 -0.214963
RightFoot  1.05961 -0.882059 8.17292
RightToes  0.000481921 0.542163 -0.142578
Spine  12.0378 1.92287 3.16085
Spine1  3.3257 2.13977 0.421364
HEad  13.7593 6.19808 -2.38254
LeftShoulder1  5.08155 -8.5164 -36.1646
LeftArm  -23.0714 27.2575 -30.8715
LeftForeArm  -163.159 -49.8973 -169.833
LeftHand  -0.25398 0.0180481 5.50724
RightShoulder  4.45202 7.57396 34.2423
RightArm  -14.4936 3.81118 34.0844
RightForeArm  173.01 53.077 166.851
RightHand  -0.296733 0.929252 -5.57774
LeftUpLeg  -6.20315 24.7217 1.47371
LeftLeg  19.8813 19.3094 6.73617
LeftFoot  -5.28846 0.120283 -1.70251
LeftToes  1.06245e-005 4.65869e-005 -8.65517e-006
1419
root  10.6333 39.8867 9.92225 11.3704 78.7615 14.9604
RightUpLeg  -8.85388 -11.634 -14.2725
RightLeg  13.5966 0.882173 0.146039
RightFoot  1.44918 -0.885345 7.97276
RightToes  0.000481921 0.542163 -0.142578
Spine  11.9368 1.55308 2.58847
Spine1  3.75986 1.57662 0.972384
HEad  13.394 7.69493 -2.12134
LeftShoulder1  5.15639 -8.36482 -37.2967
LeftArm  -23.3845 26.8797 -31.3105
LeftForeArm  -161.74 -50.236 -169.797
LeftHand  -0.25398 0.0180481 5.50724
RightShoulder  4.63133 7.63888 35.5951
RightArm  -15.2081 -0.452381 35.8787
RightForeArm  172.615 52.2655 167.187
RightHand  -0.327876 0.578542 -6.46694
LeftUpLeg  -5.46308 25.5977 3.01921
LeftLeg  18.874 20.3614 5.67194
LeftFoot  -4.77933 0.154019 -2.18276
LeftToes  1.06245e-005 4.65869e-005 -8.65517e-006
1420
root  10.6814 40.0172 10.1854 8.92456 77.4148 11.8904
RightUpLeg  -8.76479 -11.6067 -13.3621
RightLeg  11.7759 1.74937 0.581209
RightFoot  1.78933 -0.962433 8.45346
RightToes  0.000481921 0.542163 -0.142578
Spine  11.2843 1.06542 2.24923
Spine1  3.9477 0.892409 1.54502
HEad  13.5126 9.26795 -2.47261
LeftShoulder1  5.07276 -7.86383 -38.4209
LeftArm  -24.1624 27.3073 -32.0111
LeftForeArm  -160.655 -49.7577 -170.04
LeftHand  -0.25398 0.0180481 5.50724
RightShoulder  4.48838 7.19415 35.9698
RightArm  -15.6091 -5.82122 37.6116
RightForeArm  175.113 51.514 167.693
RightHand  -0.296354 1.03838 -5.46613
LeftUpLeg  -4.64901 24.1327 4.38877
LeftLeg  17.4019 23.2741 4.44175
LeftFoot  -3.99426 0.199902 -2.73946
LeftToes  1.06245e-005 4.65869e-005 -8.65517e-006
1421
root  10.7481 40.1363 10.4352 7.34155 76.0799 9.64514
RightUpLeg  -8.67498 -11.4825 -12.6326
RightLeg  10.0862 2.4389 1.05315
RightFoot  1.87199 -1.05412 9.19452
RightToes  0.000481921 0.542163 -0.142578
Spine  10.7676 0.664875 2.28741
Spine1  3.84726 0.388696 1.87986
HEad  13.4817 10.7932 -3.3152
LeftShoulder1  4.94296 -7.28847 -39.5286
LeftArm  -26.3815 27.9235 -32.3098
LeftForeArm  -159.78 -48.7015 -170.471
LeftHand  -0.25398 0.0180481 5.50724
RightShoulder  4.29176 6.75029 35.8711
RightArm  -17.4233 -11.1264 37.4952
RightForeArm  -176.591 49.9549 168.907
RightHand  -0.0356665 0.764777 -0.569936
LeftUpLeg  -3.98188 21.1367 5.41177
LeftLeg  16.0421 27.5807 3.57885
LeftFoot  -3.19644 0.24906 -3.22865
LeftToes  1.06245e-005 4.65869e-005 -8.65517e-006
1422
root  10.7796 40.2039 10.681 6.34003 74.5922 8.02386
RightUpLeg  -9.00769 -11.2165 -11.9548
RightLeg  9.15175 3.16333 1.44868
RightFoot  1.61899 -1.13326 10.0526
RightToes  0.000481921 0.542163 -0.142578
Spine  10.745 0.488016 2.64028
Spine1  3.3873 0.238033 1.86672
HEad  12.9986 12.0862 -4.2717
LeftShoulder1  4.85319 -6.88715 -40.3731
LeftArm  -30.279 27.966 -31.4972
LeftForeArm  -159.758 -48.0811 -170.689
LeftHand  -0.25398 0.0180481 5.50724
RightShoulder  4.14225 6.44856 35.6406
RightArm  -21.5067 -15.0776 35.0807
RightForeArm  -166.463 48.4663 170.153
RightHand  0.261835 0.289804 5.22651
LeftUpLeg  -3.69552 18.9215 6.10706
LeftLeg  15.2525 31.1241 3.26661
LeftFoot  -2.60512 0.299247 -3.71344
LeftToes  1.06245e-005 4.65869e-005 -8.65517e-006
